<svg version="1.1" xmlns="http://www.w3.org/2000/svg" xmlns:xlink="http://www.w3.org/1999/xlink" preserveAspectRatio="xMidYMid meet" viewBox="0 0 640 640" width="640" height="640"><defs><path d="M457.55 359.02C457.55 444.11 388.47 513.18 303.39 513.18C218.3 513.18 149.23 444.11 149.23 359.02C149.23 273.94 218.3 204.86 303.39 204.86C388.47 204.86 457.55 273.94 457.55 359.02Z" id="aoUDO3vDM"></path><path d="M393.02 359.02C393.02 408.49 352.86 448.66 303.39 448.66C253.91 448.66 213.75 408.49 213.75 359.02C213.75 309.55 253.91 269.39 303.39 269.39C352.86 269.39 393.02 309.55 393.02 359.02Z" id="e1uwjN23k"></path><path d="M329.27 359.02C329.27 374.59 316.63 387.23 301.07 387.23C285.5 387.23 272.86 374.59 272.86 359.02C272.86 343.46 285.5 330.82 301.07 330.82C316.63 330.82 329.27 343.46 329.27 359.02Z" id="e1RiqQsm2I"></path></defs><g><g><g><g><use xlink:href="#aoUDO3vDM" opacity="1" fill-opacity="0" stroke="#000000" stroke-width="38" stroke-opacity="1"></use></g></g><g><g><use xlink:href="#e1uwjN23k" opacity="1" fill-opacity="0" stroke="#000000" stroke-width="36" stroke-opacity="1"></use></g></g><g><use xlink:href="#e1RiqQsm2I" opacity="1" fill="#000000" fill-opacity="1"></use><g><use xlink:href="#e1RiqQsm2I" opacity="1" fill-opacity="0" stroke="#000000" stroke-width="25" stroke-opacity="1"></use></g></g></g></g></svg>